<svg id="eEtAfU3WJzg1" xmlns="http://www.w3.org/2000/svg" xmlns:xlink="http://www.w3.org/1999/xlink" viewBox="0 0 1067.066 962.141" shape-rendering="geometricPrecision" text-rendering="geometricPrecision">
<style><![CDATA[
#eEtAfU3WJzg3_to {animation: eEtAfU3WJzg3_to__to 5000ms linear 1 normal forwards}@keyframes eEtAfU3WJzg3_to__to { 0% {transform: translate(127.506px,708.473844px);animation-timing-function: cubic-bezier(0.565,-0.075,0.19,1.13)} 72% {transform: translate(127.506px,708.473844px);animation-timing-function: cubic-bezier(0.565,-0.075,0.19,1.13)} 88% {transform: translate(127.506px,398.456px)} 100% {transform: translate(127.506px,398.456px)}} #eEtAfU3WJzg3_ts {animation: eEtAfU3WJzg3_ts__ts 5000ms linear 1 normal forwards}@keyframes eEtAfU3WJzg3_ts__ts { 0% {transform: scale(1,0);animation-timing-function: cubic-bezier(0.565,-0.075,0.19,1.13)} 72% {transform: scale(1,0);animation-timing-function: cubic-bezier(0.565,-0.075,0.19,1.13)} 88% {transform: scale(1,1)} 100% {transform: scale(1,1)}} #eEtAfU3WJzg4_to {animation: eEtAfU3WJzg4_to__to 5000ms linear 1 normal forwards}@keyframes eEtAfU3WJzg4_to__to { 0% {transform: translate(330.358px,700.120968px);animation-timing-function: cubic-bezier(0.565,-0.075,0.19,1.13)} 72% {transform: translate(330.358px,700.120968px);animation-timing-function: cubic-bezier(0.565,-0.075,0.19,1.13)} 96% {transform: translate(330.358px,508.164px)} 100% {transform: translate(330.358px,508.164px)}} #eEtAfU3WJzg4_ts {animation: eEtAfU3WJzg4_ts__ts 5000ms linear 1 normal forwards}@keyframes eEtAfU3WJzg4_ts__ts { 0% {transform: scale(1,0);animation-timing-function: cubic-bezier(0.565,-0.075,0.19,1.13)} 72% {transform: scale(1,0);animation-timing-function: cubic-bezier(0.565,-0.075,0.19,1.13)} 96% {transform: scale(1,1)} 100% {transform: scale(1,1)}} #eEtAfU3WJzg5_to {animation: eEtAfU3WJzg5_to__to 5000ms linear 1 normal forwards}@keyframes eEtAfU3WJzg5_to__to { 0% {transform: translate(737.074026px,708.473844px);animation-timing-function: cubic-bezier(0.565,-0.075,0.19,1.13)} 72% {transform: translate(737.074026px,708.473844px);animation-timing-function: cubic-bezier(0.565,-0.075,0.19,1.13)} 96% {transform: translate(737.074026px,508.164px)} 100% {transform: translate(737.074026px,508.164px)}} #eEtAfU3WJzg5_ts {animation: eEtAfU3WJzg5_ts__ts 5000ms linear 1 normal forwards}@keyframes eEtAfU3WJzg5_ts__ts { 0% {transform: scale(1,0);animation-timing-function: cubic-bezier(0.565,-0.075,0.19,1.13)} 72% {transform: scale(1,0);animation-timing-function: cubic-bezier(0.565,-0.075,0.19,1.13)} 96% {transform: scale(1,1)} 100% {transform: scale(1,1)}} #eEtAfU3WJzg6_to {animation: eEtAfU3WJzg6_to__to 5000ms linear 1 normal forwards}@keyframes eEtAfU3WJzg6_to__to { 0% {transform: translate(533.533px,708.473844px);animation-timing-function: cubic-bezier(0.565,-0.075,0.19,1.13)} 72% {transform: translate(533.533px,708.473844px);animation-timing-function: cubic-bezier(0.565,-0.075,0.19,1.13)} 88% {transform: translate(533.533px,398.456px)} 100% {transform: translate(533.533px,398.456px)}} #eEtAfU3WJzg6_ts {animation: eEtAfU3WJzg6_ts__ts 5000ms linear 1 normal forwards}@keyframes eEtAfU3WJzg6_ts__ts { 0% {transform: scale(1,0);animation-timing-function: cubic-bezier(0.565,-0.075,0.19,1.13)} 72% {transform: scale(1,0);animation-timing-function: cubic-bezier(0.565,-0.075,0.19,1.13)} 88% {transform: scale(1,1)} 100% {transform: scale(1,1)}} #eEtAfU3WJzg7_to {animation: eEtAfU3WJzg7_to__to 5000ms linear 1 normal forwards}@keyframes eEtAfU3WJzg7_to__to { 0% {transform: translate(940.287px,708.473844px);animation-timing-function: cubic-bezier(0.565,-0.075,0.19,1.13)} 72% {transform: translate(940.287px,708.473844px);animation-timing-function: cubic-bezier(0.565,-0.075,0.19,1.13)} 88% {transform: translate(940.287px,358.892px)} 100% {transform: translate(940.287px,358.892px)}} #eEtAfU3WJzg7_ts {animation: eEtAfU3WJzg7_ts__ts 5000ms linear 1 normal forwards}@keyframes eEtAfU3WJzg7_ts__ts { 0% {transform: scale(1,0);animation-timing-function: cubic-bezier(0.565,-0.075,0.19,1.13)} 72% {transform: scale(1,0);animation-timing-function: cubic-bezier(0.565,-0.075,0.19,1.13)} 88% {transform: scale(1,1)} 100% {transform: scale(1,1)}} #eEtAfU3WJzg9_ts {animation: eEtAfU3WJzg9_ts__ts 5000ms linear 1 normal forwards}@keyframes eEtAfU3WJzg9_ts__ts { 0% {transform: translate(330.356px,895.233px) scale(1,0);animation-timing-function: cubic-bezier(0.565,-0.075,0.19,1.13)} 72% {transform: translate(330.356px,895.233px) scale(1,0);animation-timing-function: cubic-bezier(0.565,-0.075,0.19,1.13)} 96% {transform: translate(330.356px,895.233px) scale(1,1)} 100% {transform: translate(330.356px,895.233px) scale(1,1)}} #eEtAfU3WJzg10_to {animation: eEtAfU3WJzg10_to__to 5000ms linear 1 normal forwards}@keyframes eEtAfU3WJzg10_to__to { 0% {transform: translate(330.356019px,797.678041px);animation-timing-function: cubic-bezier(0.565,-0.075,0.19,1.13)} 72% {transform: translate(330.356019px,797.678041px);animation-timing-function: cubic-bezier(0.565,-0.075,0.19,1.13)} 96% {transform: translate(330.356018px,627.247009px)} 100% {transform: translate(330.356018px,627.247009px)}} #eEtAfU3WJzg12_ts {animation: eEtAfU3WJzg12_ts__ts 5000ms linear 1 normal forwards}@keyframes eEtAfU3WJzg12_ts__ts { 0% {transform: translate(127.506px,895.233px) scale(1,0);animation-timing-function: cubic-bezier(0.565,-0.075,0.19,1.13)} 72% {transform: translate(127.506px,895.233px) scale(1,0);animation-timing-function: cubic-bezier(0.565,-0.075,0.19,1.13)} 88% {transform: translate(127.506px,895.233px) scale(1,1)} 100% {transform: translate(127.506px,895.233px) scale(1,1)}} #eEtAfU3WJzg13_to {animation: eEtAfU3WJzg13_to__to 5000ms linear 1 normal forwards}@keyframes eEtAfU3WJzg13_to__to { 0% {transform: translate(127.505993px,815.406103px);animation-timing-function: cubic-bezier(0.565,-0.075,0.19,1.13)} 72.2% {transform: translate(127.505993px,815.406103px);animation-timing-function: cubic-bezier(0.565,-0.075,0.19,1.13)} 88% {transform: translate(127.505993px,499.812103px)} 100% {transform: translate(127.505993px,499.812103px)}} #eEtAfU3WJzg15_ts {animation: eEtAfU3WJzg15_ts__ts 5000ms linear 1 normal forwards}@keyframes eEtAfU3WJzg15_ts__ts { 0% {transform: translate(533.533px,895.232968px) scale(1,0);animation-timing-function: cubic-bezier(0.565,-0.075,0.19,1.13)} 72% {transform: translate(533.533px,895.232968px) scale(1,0);animation-timing-function: cubic-bezier(0.565,-0.075,0.19,1.13)} 88% {transform: translate(533.533px,895.232968px) scale(1,1)} 100% {transform: translate(533.533px,895.232968px) scale(1,1)}} #eEtAfU3WJzg16_to {animation: eEtAfU3WJzg16_to__to 5000ms linear 1 normal forwards}@keyframes eEtAfU3WJzg16_to__to { 0% {transform: translate(533.835464px,815.429013px);animation-timing-function: cubic-bezier(0.565,-0.075,0.19,1.13)} 72% {transform: translate(533.835464px,815.429013px);animation-timing-function: cubic-bezier(0.565,-0.075,0.19,1.13)} 88% {transform: translate(533.835464px,499.810013px)} 100% {transform: translate(533.835464px,499.810013px)}} #eEtAfU3WJzg18_ts {animation: eEtAfU3WJzg18_ts__ts 5000ms linear 1 normal forwards}@keyframes eEtAfU3WJzg18_ts__ts { 0% {transform: translate(938.426503px,895.233px) scale(1,0);animation-timing-function: cubic-bezier(0.565,-0.075,0.19,1.13)} 72% {transform: translate(938.426503px,895.233px) scale(1,0);animation-timing-function: cubic-bezier(0.565,-0.075,0.19,1.13)} 88% {transform: translate(938.426503px,895.233px) scale(1,1)} 100% {transform: translate(938.426503px,895.233px) scale(1,1)}} #eEtAfU3WJzg19_to {animation: eEtAfU3WJzg19_to__to 5000ms linear 1 normal forwards}@keyframes eEtAfU3WJzg19_to__to { 0% {transform: translate(940.287048px,854.789533px);animation-timing-function: cubic-bezier(0.565,-0.075,0.19,1.13)} 72% {transform: translate(940.287048px,854.789533px);animation-timing-function: cubic-bezier(0.565,-0.075,0.19,1.13)} 88% {transform: translate(940.287048px,480.029007px)} 100% {transform: translate(940.287048px,480.029007px)}} #eEtAfU3WJzg21_ts {animation: eEtAfU3WJzg21_ts__ts 5000ms linear 1 normal forwards}@keyframes eEtAfU3WJzg21_ts__ts { 0% {transform: translate(736.698px,895.233px) scale(1,0);animation-timing-function: cubic-bezier(0.565,-0.075,0.19,1.13)} 72% {transform: translate(736.698px,895.233px) scale(1,0);animation-timing-function: cubic-bezier(0.565,-0.075,0.19,1.13)} 96% {transform: translate(736.698px,895.233px) scale(1,1)} 100% {transform: translate(736.698px,895.233px) scale(1,1)}} #eEtAfU3WJzg22_to {animation: eEtAfU3WJzg22_to__to 5000ms linear 1 normal forwards}@keyframes eEtAfU3WJzg22_to__to { 0% {transform: translate(737.0737px,797.676975px);animation-timing-function: cubic-bezier(0.565,-0.075,0.19,1.13)} 72% {transform: translate(737.0737px,797.676975px);animation-timing-function: cubic-bezier(0.565,-0.075,0.19,1.13)} 96% {transform: translate(737.0737px,627.251007px)} 100% {transform: translate(737.0737px,627.251007px)}} #eEtAfU3WJzg24_to {animation: eEtAfU3WJzg24_to__to 5000ms linear 1 normal forwards}@keyframes eEtAfU3WJzg24_to__to { 0% {transform: translate(127.505985px,599.940972px);animation-timing-function: cubic-bezier(0.565,-0.075,0.19,1.13)} 72% {transform: translate(127.505985px,599.940972px);animation-timing-function: cubic-bezier(0.565,-0.075,0.19,1.13)} 88% {transform: translate(127.505985px,148.881004px)} 100% {transform: translate(127.505985px,148.881004px)}} #eEtAfU3WJzg25_to {animation: eEtAfU3WJzg25_to__to 5000ms linear 1 normal forwards}@keyframes eEtAfU3WJzg25_to__to { 0% {transform: translate(330.358078px,600.293972px);animation-timing-function: cubic-bezier(0.565,-0.075,0.19,1.13)} 72% {transform: translate(330.358078px,600.293972px);animation-timing-function: cubic-bezier(0.565,-0.075,0.19,1.13)} 96% {transform: translate(330.358078px,149.173004px)} 100% {transform: translate(330.358078px,149.173004px)}} #eEtAfU3WJzg26_to {animation: eEtAfU3WJzg26_to__to 5000ms linear 1 normal forwards}@keyframes eEtAfU3WJzg26_to__to { 0% {transform: translate(533.836502px,599.587961px);animation-timing-function: cubic-bezier(0.565,-0.075,0.19,1.13)} 72% {transform: translate(533.836502px,599.587961px);animation-timing-function: cubic-bezier(0.565,-0.075,0.19,1.13)} 88% {transform: translate(533.836502px,149.165993px)} 100% {transform: translate(533.836502px,149.165993px)}} #eEtAfU3WJzg27_to {animation: eEtAfU3WJzg27_to__to 5000ms linear 1 normal forwards}@keyframes eEtAfU3WJzg27_to__to { 0% {transform: translate(739.644684px,600.334064px);animation-timing-function: cubic-bezier(0.565,-0.075,0.19,1.13)} 72% {transform: translate(739.644684px,600.334064px);animation-timing-function: cubic-bezier(0.565,-0.075,0.19,1.13)} 96% {transform: translate(739.644684px,148.880714px)} 100% {transform: translate(739.644684px,148.880714px)}}
]]></style>
<g><g id="eEtAfU3WJzg3_to" transform="translate(127.506,708.473844)"><g id="eEtAfU3WJzg3_ts" transform="scale(1,0)"><rect width="143.128" height="151.142" rx="0" ry="0" transform="translate(-71.564,-151.142)" fill="#fff"/></g></g><g id="eEtAfU3WJzg4_to" transform="translate(330.358,700.120968)"><g id="eEtAfU3WJzg4_ts" transform="scale(1,0)"><rect width="143.128" height="260.85" rx="0" ry="0" transform="translate(-71.565,-260.85)" fill="#fff"/></g></g><g id="eEtAfU3WJzg5_to" transform="translate(737.074026,708.473844)"><g id="eEtAfU3WJzg5_ts" transform="scale(1,0)"><rect width="143.128" height="260.85" rx="0" ry="0" transform="translate(-71.940026,-260.85)" fill="#fff"/></g></g><g id="eEtAfU3WJzg6_to" transform="translate(533.533,708.473844)"><g id="eEtAfU3WJzg6_ts" transform="scale(1,0)"><rect width="143.128" height="151.142" rx="0" ry="0" transform="translate(-71.261,-151.142)" fill="#fff"/></g></g><g id="eEtAfU3WJzg7_to" transform="translate(940.287,708.473844)"><g id="eEtAfU3WJzg7_ts" transform="scale(1,0)"><polygon points="867.996,205.947 867.996,208.856 867.996,358.892 1011.123,358.892 1011.123,208.856 1011.123,205.947 1011.123,68.697 867.996,68.697" transform="translate(-940.287,-358.892)" fill="#fff"/></g></g></g><g transform="translate(0-.000032)"><g id="eEtAfU3WJzg9_ts" transform="translate(330.356,895.233) scale(1,0)"><rect width="143.128" height="151.142" rx="0" ry="0" transform="translate(-71.563,-151.142)" fill="#fff"/></g><g id="eEtAfU3WJzg10_to" transform="translate(330.356019,797.678041)"><path d="M311.188,529.692v38.544h-19.118v18.511h19.118v105.94c0,17.708,14.407,32.115,32.116,32.115h25.338v-21.662h-23.576c-6.735,0-12.214-5.479-12.214-12.215v-104.178h29.547v-18.511h-29.547v-38.544h-21.664Z" transform="translate(-330.356018,-627.247009)" fill="#fff"/></g></g><g><g id="eEtAfU3WJzg12_ts" transform="translate(127.506,895.233) scale(1,0)"><polygon points="55.942,745.835 55.942,748.94 55.942,895.233 199.07,895.233 199.07,748.94 199.07,745.835 199.07,599.542 55.942,599.542" transform="translate(-127.506,-895.233)" fill="#fff"/></g><g id="eEtAfU3WJzg13_to" transform="translate(127.505993,815.406103)"><path d="M70.38,526.465v53.174h18.907v-9.644c1.732,1.006,3.529,1.961,5.38,2.862c7.591,3.648,16.115,5.852,25.308,6.552.173.014.34.023.506.029l.327.019c1.278.08,2.366.116,3.368.116.46.023.93.049,1.281.043.604.023,1.211.023,1.839.023c18.246,0,32.481-4.133,42.31-12.282c9.971-8.261,15.026-18.975,15.026-31.845c0-12.205-4.515-22.277-13.42-29.938-8.614-7.452-22.597-13.406-41.546-17.695-9.956-2.307-17.661-4.785-22.894-7.359-4.863-2.421-8.142-5.101-9.75-7.976-1.651-2.918-2.487-6.445-2.487-10.48c0-6.151,2.669-11.431,8.155-16.137c4.106-3.501,9.628-5.742,16.416-6.658l.145-.014c1.318-.138,2.757-.207,4.275-.207c5.072,0,9.779.578,13.927,1.701l.596.169c.152.049.321.098.511.147c3.731,1.189,15.854,5.781,20.224,16.268.497,1.18.88,2.367,1.139,3.529.339,1.516.511,3.135.511,4.817v1.146l.55,6.334h18.357v-53.174h-18.907v9.642c-1.729-1.004-3.527-1.959-5.378-2.859-8.701-4.191-18.625-6.465-29.601-6.762-10.183.136-19.249,1.988-26.944,5.502-8.127,3.693-14.519,8.826-18.998,15.251-4.509,6.456-6.795,13.81-6.795,21.855c0,6.291,1.158,11.962,3.438,16.854c2.147,4.627,5.312,8.654,9.408,11.97c8.221,6.644,21.566,12.003,39.652,15.925c14.352,3.195,24.39,7.355,29.83,12.361c3.563,3.298,7.009,10.634,7.009,10.634s.894,3.894.894,5.992c0,6.694-2.889,12.339-8.836,17.261-6.006,4.987-15.027,7.517-26.814,7.517-1.502,0-3.003-.04-4.465-.12l-.339-.034c-3.542-.318-6.935-1.222-10.225-2.098l-.555-.158c-.16-.052-.344-.105-.551-.159-3.731-1.189-15.855-5.78-20.216-16.247-.476-1.159-.827-2.22-1.072-3.232l-.096-.412c-.325-1.488-.49-3.077-.49-4.723v-7.48h-18.91Z" transform="translate(-127.505993,-499.812103)" fill="#fff"/></g></g><g><g id="eEtAfU3WJzg15_ts" transform="translate(533.533,895.232968) scale(1,0)"><polygon points="462.272,745.835 462.272,748.936 462.272,895.233 605.4,895.233 605.4,748.936 605.4,745.835 605.4,599.537 462.272,599.537" transform="translate(-533.533,-895.232968)" fill="#fff"/></g><g id="eEtAfU3WJzg16_to" transform="translate(533.835464,815.429013)"><path d="M465.762,420.006v18.584h18.434v72.612c0,22.982,4.571,40.283,13.586,51.425c9.141,11.272,22.057,16.987,38.391,16.987c11.538,0,21.547-2.545,29.746-7.562c5.743-3.503,10.716-8.067,14.855-13.624v21.186h21.135v-159.608h-43.009v18.584h21.191v90.94c-2.536,9.32-7.177,16.836-13.802,22.346-6.625,5.53-16.113,8.335-28.199,8.335-10.503,0-18.286-3.577-23.793-10.934-5.585-7.486-8.417-20.207-8.417-37.808v-91.463h-40.118Z" transform="translate(-533.835464,-499.810013)" fill="#fff"/></g></g><g><g id="eEtAfU3WJzg18_ts" transform="translate(938.426503,895.233) scale(1,0)"><polygon points="867.996,745.835 867.996,748.94 867.996,895.233 1011.123,895.233 1011.123,748.94 1011.123,745.835 1011.123,599.542 867.996,599.542" transform="translate(-939.5595,-895.233)" fill="#fff"/></g><g id="eEtAfU3WJzg19_to" transform="translate(940.287048,854.789533)"><path d="M905.181,380.442h-32.584v18.014h16.999l46.336,113.663-7.317,19.228c-3.355,8.389-7.268,17.939-11.267,22.419-3.747,4.197-8.699,6.237-15.139,6.237h-15.109v19.613h15.661c8.305,0,15.362-1.67,20.984-4.968c5.584-3.299,10.276-7.914,13.943-13.717c3.528-5.56,6.748-11.998,9.581-19.161l60.708-161.327h-47.53v18.014h18.578l-32.58,86.535-4.231-11.544-27.808-69.841h.023l-9.248-23.165Z" transform="translate(-940.287048,-480.029007)" fill="#fff"/></g></g><g><g id="eEtAfU3WJzg21_ts" transform="translate(736.698,895.233) scale(1,0)"><rect width="143.128" height="151.142" rx="0" ry="0" transform="translate(-71.564,-151.142)" fill="#fff"/></g><g id="eEtAfU3WJzg22_to" transform="translate(737.0737,797.676975)"><path d="M767.917,595.413c-1.07-.706-2.203-1.355-3.465-1.986-2.718-1.358-5.853-2.546-9.579-3.629-17.492-5.127-36.26-3.447-50.265,4.521-.225.123-.432.241-.639.386-.422.255-.821.506-1.137.708-.171.097-.334.212-.53.362-.056.034-.112.072-.169.111-2.308,1.489-4.277,2.966-6.021,4.516-3.117,2.776-5.894,5.968-8.259,9.492l-.21.314c-.479.717-.968,1.449-1.424,2.184-.311.502-.622,1.006-.872,1.467-.398.678-.773,1.381-1.083,1.986-.739,1.319-1.43,2.709-2.112,4.245-3.806,8.539-6.068,18.442-6.72,29.369l-.07.812c-.375,5.54-.345,10.992.091,16.185l.069.857c1.515,16.26,6.916,30.01,15.619,39.762c1.183,1.323,2.453,2.593,3.71,3.715.571.546,1.164,1.049,1.782,1.568.955.783,1.913,1.503,2.769,2.084.548.407,1.097.788,1.623,1.13.635.424,1.269.823,1.896,1.195.707.423,1.416.825,2.097,1.175.535.292,1.069.559,1.707.878.536.256,1.072.511,1.576.73.695.312,1.415.622,2.04.85c7.104,2.923,15.262,4.407,24.246,4.407c10.694,0,20.203-1.848,28.265-5.492.183-.061.33-.126.438-.177c5.653-2.317,10.127-5.212,13.667-8.838.035-.037.072-.076.11-.117.048-.044.091-.084.129-.122.24-.221.478-.446.716-.674v15.417h21.134v-195.109h-40.12v18.578h18.434v43.799l.059,10.886c-2.533-2.546-5.281-4.791-8.208-6.705-.447-.305-.892-.589-1.294-.84Zm9.637,32.918l.302,58.478c-.658,1.027-1.263,1.904-1.869,2.711-.059.066-.128.146-.199.242-6.125,7.288-14.214,12.925-22.8,15.883-3.668,1.28-7.409,2.073-11.133,2.357-5.016.41-10.287-.16-15.243-1.645-9.523-2.811-17.706-8.804-22.565-16.501l-.004-.326-.515-.53c-4.638-7.813-6.763-17.897-6.684-31.706.053-12.392,1.743-21.79,5.32-29.581l.077-.184c.121-.328.281-.639.448-.972.551-1.127,1.036-2.033,1.538-2.869c5.395-9.174,14.633-16.048,25.379-18.901l.363-.083c4.754-1.234,9.516-1.608,14.164-1.098c4.105.428,8.216,1.564,12.224,3.378l.117.109.402.134c9.187,4.341,16.696,12.011,20.678,21.104Z" transform="translate(-737.0737,-627.251007)" fill="#fff"/></g></g><g><g id="eEtAfU3WJzg24_to" transform="translate(127.505985,599.940972)"><path d="M97.447,219.121c9.859,6.596,21.545,9.94,34.734,9.94c11.878,0,22.627-2.282,31.957-6.786c1.847-.9,3.642-1.854,5.368-2.856v9.642h18.907v-62.257h-18.907v16.565c0,3.018-.538,5.745-1.654,8.354-4.366,10.479-16.489,15.071-20.22,16.259-.184.048-.351.096-.5.144-.34.094-.548.156-.559.16-4.206,1.137-8.908,1.714-13.974,1.714-8.744,0-16.513-2.47-23.091-7.343-6.675-4.943-11.919-11.825-15.589-20.459-3.893-9.107-5.635-23.849-5.635-34.419c0-11.917,2.107-23.959,5.638-32.219c3.668-8.629,8.912-15.511,15.586-20.454c6.578-4.872,14.347-7.343,23.091-7.343c5.072,0,9.778.578,13.913,1.697c0,0,.221.067.621.178.149.048.315.096.5.144c3.731,1.188,15.854,5.78,20.229,16.279c1.107,2.589,1.645,5.315,1.645,8.333v16.565h18.907v-62.257h-18.907v9.643c-1.728-1.002-3.524-1.959-5.376-2.859-9.325-4.502-20.074-6.785-31.95-6.785-13.188,0-24.874,3.345-34.736,9.943-9.801,6.573-17.488,15.764-22.847,27.323-5.084,10.992-8,26.231-8,41.812c0,12.918,2.102,31.266,8.001,44.019c5.359,11.558,13.045,20.749,22.848,27.323Z" transform="translate(-127.505985,-148.881004)" fill="#fff"/></g><g id="eEtAfU3WJzg25_to" transform="translate(330.358078,600.293972)"><path d="M284.208,217.03c8.432,7.942,20.187,11.97,34.937,11.97c2.806,0,5.531-.163,8.101-.485l.196-.019c8.033-.984,15.618-3.472,22.547-7.394c6.828-3.871,12.729-8.638,17.617-14.222v22.112h21.664v-107.25c0-16.277-5.039-29.228-14.981-38.496-9.539-8.866-23.023-13.535-40.076-13.877l-.226.001c-10.922.27-20.886,2.545-29.621,6.763-1.845.898-3.639,1.852-5.369,2.857v-9.644h-18.908v62.258h18.908v-16.564c0-.152-.004-.289.009-.427l.013-.258c0-.507.021-.905.066-1.255l.032-.369c.21-2.157.707-4.128,1.534-6.048c4.363-10.473,16.475-15.065,20.214-16.257.186-.048.355-.096.505-.145.342-.095.551-.157.56-.16c4.202-1.137,8.903-1.714,13.974-1.714h.052c9.988.628,17.664,3.629,22.811,8.916c5.948,6.133,8.84,14.027,8.84,24.131v14.482h-28.241c-13.666,0-25.671,2.004-35.675,5.957-10.151,3.987-18.135,9.705-23.725,16.991-5.653,7.335-8.52,15.989-8.52,25.722-.001,13.516,4.292,24.423,12.762,32.424Zm9.683-38.276c1.478-5.915,5.226-11.19,11.142-15.682c8.102-6.175,19.609-9.307,34.199-9.307h28.373v28.168c-4.079,8.143-10.428,14.79-18.883,19.766-7.265,4.292-14.997,6.807-23.011,7.48-1.462.14-2.983.208-4.648.208-8.662,0-15.571-2.276-20.546-6.771-4.985-4.467-7.409-10.178-7.409-17.457c0-2.215.262-4.366.783-6.405Z" transform="translate(-330.358078,-149.173004)" fill="#fff"/></g><g id="eEtAfU3WJzg26_to" transform="translate(533.836502,599.587961)"><path d="M495.617,219.349c1.731,1.005,3.529,1.961,5.38,2.862c7.592,3.647,16.115,5.85,25.308,6.551.173.015.339.024.506.03l.33.019c1.259.077,2.327.114,3.353.115.464.024.917.053,1.289.042.607.024,1.214.025,1.844.025c18.244,0,32.48-4.133,42.31-12.282c9.971-8.261,15.026-18.977,15.026-31.846c0-12.204-4.514-22.275-13.419-29.937-8.617-7.454-22.599-13.409-41.547-17.695-9.952-2.307-17.658-4.785-22.894-7.359-4.864-2.422-8.143-5.102-9.751-7.979-1.65-2.916-2.487-6.441-2.487-10.478c0-6.152,2.67-11.432,8.155-16.138c4.106-3.5,9.628-5.741,16.414-6.657l.147-.014c1.317-.138,2.756-.207,4.275-.207c5.072,0,9.778.578,13.927,1.701l.596.169c.151.049.321.098.511.148c3.733,1.189,15.855,5.781,20.224,16.268.499,1.184.882,2.37,1.139,3.529.339,1.517.511,3.138.511,4.815v1.147l.549,6.333h18.358v-53.172h-18.907v9.642c-1.729-1.004-3.526-1.959-5.378-2.86-8.702-4.191-18.626-6.465-29.601-6.76-10.183.136-19.249,1.988-26.944,5.502-8.128,3.695-14.521,8.826-18.998,15.249-4.509,6.458-6.795,13.81-6.795,21.855c0,6.292,1.158,11.965,3.438,16.855c2.148,4.63,5.313,8.655,9.407,11.969c8.219,6.645,21.564,12.004,39.651,15.926c14.355,3.196,24.392,7.356,29.829,12.361c3.564,3.298,5.852,6.764,7.009,10.636.593,1.873.893,3.888.893,5.989c0,6.694-2.888,12.34-8.834,17.261-6.007,4.988-15.029,7.518-26.815,7.518-1.501,0-3.002-.04-4.464-.12l-.339-.034c-3.53-.317-6.912-1.217-10.224-2.098l-.538-.152c-.166-.056-.355-.111-.571-.167-3.73-1.188-15.852-5.775-20.215-16.246-.474-1.155-.826-2.215-1.071-3.231l-.097-.41c-.325-1.488-.49-3.077-.49-4.725v-7.48h-18.907v53.174h18.907v-9.644Z" transform="translate(-533.836502,-149.165993)" fill="#fff"/></g><g id="eEtAfU3WJzg27_to" transform="translate(739.644684,600.334064)"><path d="M689.005,202.872c16.186,22.134,42.687,29.57,68.856,24.049c5.032-1.06,9.968-2.595,14.714-4.556c9.667-4.003,18.606-9.778,26.122-17.072-3.054-4.889-6.107-9.762-9.161-14.651-4.541,3.924-9.508,7.341-14.761,10.221-4.509,2.468-9.256,4.525-14.145,6.107-.459.142-.902.285-1.361.411-.032.031-.063.047-.111.047-4.098,1.456-7.831,2.183-10.901,2.531-.111.032-.237.048-.348.048-4.129.427-6.993.158-7.816.063-.158-.016-.237-.032-.237-.032-10.205-.57-20.22-4.573-27.672-11.566-9.841-9.256-14.571-22.688-15.79-36.31-.253-2.801-.348-5.617-.316-8.401c36.422,0,72.858,0,109.28-.016c1.82-16.154-.996-32.988-8.322-47.386-3.418-6.724-7.816-12.91-13.195-18.258-16.897-16.818-43.604-23.922-65.866-15.379-13.717,5.253-25.014,15.885-32.402,28.574-7.389,12.689-11.028,27.34-11.945,41.99-.475,7.341-.237,14.793.823,22.103c1.913,13.498,6.549,26.519,14.554,37.483Zm12.626-82.098c1.519-4.351,3.354-8.544,5.475-12.578l.063.063c3.086-6.028,7.436-10.853,12.911-14.35c5.364-3.434,11.898-5.269,19.429-5.49h.633c7.531.222,14.082,2.057,19.429,5.49c5.047,3.227,9.145,7.578,12.183,12.973l.095-.079c.823,1.519,1.614,3.053,2.358,4.62c2.991,6.25,5.316,12.847,6.914,19.745.301,1.234.553,2.468.791,3.702h-84.124c.932-4.84,2.213-9.539,3.843-14.096Z" transform="translate(-739.644684,-148.880714)" fill="#fff"/></g></g></svg>
