<?xml version="1.0" encoding="iso-8859-1"?>
<!-- Generator: Adobe Illustrator 26.3.1, SVG Export Plug-In . SVG Version: 6.00 Build 0)  -->
<svg version="1.1" id="Layer_1" xmlns="http://www.w3.org/2000/svg" xmlns:xlink="http://www.w3.org/1999/xlink" x="0px" y="0px"
	 width="1068.477px" height="1157.664px" viewBox="0 0 1068.477 1157.664" enable-background="new 0 0 1068.477 1157.664"
	 xml:space="preserve">
<g>
	<rect x="58.332" y="607.422" fill="#201D28" width="431.699" height="481.476"/>
	<path fill="#201D28" d="M183.518,522.388c29.736,19.896,64.985,29.981,104.764,29.981c35.826,0,68.248-6.883,96.389-20.467
		c5.572-2.714,10.984-5.593,16.192-8.616v29.083h57.028V364.591h-57.028v49.962c0,9.103-1.622,17.327-4.988,25.196
		c-13.169,31.608-49.733,45.458-60.987,49.041c-0.556,0.145-1.058,0.289-1.508,0.434c-1.026,0.286-1.654,0.472-1.687,0.484
		c-12.687,3.43-26.867,5.17-42.149,5.17c-26.372,0-49.805-7.451-69.647-22.147c-20.132-14.908-35.949-35.666-47.019-61.706
		c-11.741-27.469-16.997-71.933-16.997-103.815c0-35.944,6.354-72.264,17.005-97.178c11.062-26.026,26.879-46.783,47.011-61.692
		c19.841-14.695,43.274-22.146,69.647-22.146c15.297,0,29.493,1.743,41.963,5.117c0,0,0.666,0.201,1.873,0.537
		c0.449,0.144,0.95,0.289,1.508,0.433c11.254,3.582,47.82,17.434,61.014,49.102c3.339,7.808,4.961,16.032,4.961,25.135v49.962
		h57.028V68.697h-57.028v29.087c-5.212-3.023-10.63-5.909-16.213-8.623c-28.126-13.581-60.548-20.464-96.367-20.464
		c-39.777,0-75.024,10.089-104.77,29.989c-29.563,19.824-52.747,47.548-68.91,82.41c-15.335,33.153-24.13,79.117-24.13,126.113
		c0,38.963,6.339,94.304,24.134,132.768C130.765,474.836,153.949,502.56,183.518,522.388z"/>
</g>
<g>
	<rect x="578.446" y="70.825" fill="#FF8025" width="431.699" height="481.476"/>
	<path fill="#FF8025" d="M932.451,865.573c-25.982-22.478-68.156-40.436-125.312-53.373c-30.027-6.96-53.27-14.433-69.051-22.196
		c-14.669-7.302-24.558-15.385-29.409-24.058c-4.978-8.802-7.502-19.44-7.502-31.611c0-18.552,8.05-34.478,24.597-48.671
		c12.383-10.561,29.041-17.319,49.512-20.083l0.438-0.042c3.977-0.415,8.315-0.624,12.895-0.624c15.299,0,29.494,1.743,42.005,5.132
		l1.797,0.51c0.457,0.149,0.969,0.297,1.54,0.446c11.254,3.587,47.82,17.437,61,49.067c1.5,3.559,2.654,7.138,3.434,10.644
		c1.022,4.572,1.54,9.457,1.54,14.529v3.457l1.658,19.105h55.37V607.422h-57.028v29.084c-5.216-3.027-10.637-5.909-16.22-8.624
		c-26.243-12.64-56.175-19.5-89.282-20.395c-30.715,0.411-58.06,5.996-81.268,16.595c-24.512,11.14-43.794,26.62-57.302,45.998
		c-13.599,19.474-20.494,41.655-20.494,65.918c0,18.975,3.491,36.081,10.369,50.833c6.474,13.957,16.021,26.102,28.375,36.104
		c24.794,20.041,65.046,36.202,119.597,48.031c43.289,9.636,73.566,22.185,89.971,37.284c10.746,9.949,17.65,20.407,21.141,32.076
		c1.789,5.661,2.697,11.745,2.697,18.073c0,20.189-8.715,37.215-26.65,52.063c-18.115,15.042-45.325,22.672-80.878,22.672
		c-4.53,0-9.059-0.122-13.468-0.362l-1.02-0.103c-10.685-0.959-20.917-3.685-30.842-6.328l-1.673-0.476
		c-0.482-0.156-1.037-0.316-1.662-0.48c-11.254-3.586-47.822-17.433-60.976-49.002c-1.435-3.495-2.496-6.697-3.232-9.75
		l-0.291-1.241c-0.98-4.488-1.477-9.282-1.477-14.247v-22.561h-57.028v160.382h57.028v-29.087c5.223,3.034,10.645,5.916,16.226,8.63
		c22.896,11.003,48.604,17.65,76.334,19.763c0.523,0.042,1.024,0.068,1.525,0.088l0.988,0.057c3.855,0.24,7.136,0.35,10.159,0.35
		c1.388,0.068,2.806,0.148,3.864,0.129c1.824,0.068,3.651,0.068,5.545,0.068c55.035,0,97.97-12.464,127.613-37.044
		c30.075-24.918,45.323-57.234,45.323-96.052C972.927,919.059,959.309,888.678,932.451,865.573z"/>
</g>
</svg>
